<?xml version="1.0" encoding="UTF-8" standalone="no"?>
<!DOCTYPE svg PUBLIC "-//W3C//DTD SVG 1.1//EN" "http://www.w3.org/Graphics/SVG/1.1/DTD/svg11.dtd">
<svg width="100%" height="100%" viewBox="0 0 369 1038" version="1.1" xmlns="http://www.w3.org/2000/svg" xmlns:xlink="http://www.w3.org/1999/xlink" xml:space="preserve" xmlns:serif="http://www.serif.com/" style="fill-rule:evenodd;clip-rule:evenodd;stroke-linejoin:round;stroke-miterlimit:2;">
    <g transform="matrix(0.911184,-0.411999,0.411999,0.911184,-299.602,-102.624)">
        <path d="M138.54,1314.45L138.54,743.997L88.1,743.997L88.1,1291.64L138.54,1314.45Z" style="fill:url(#_Linear1);"/>
    </g>
    <g transform="matrix(-0.960823,-0.277164,0.277164,-0.960823,66.8871,1317.04)">
        <path d="M141.464,1329.93L191.904,1315.38L191.904,756.227L141.464,756.227L141.464,1329.93Z" style="fill:url(#_Linear2);"/>
    </g>
    <g transform="matrix(-0.91118,0.412007,-0.412007,-0.91118,1267.58,2243.3)">
        <path d="M370.341,1490.25L370.341,2055.94L461.511,2055.94L461.511,1531.48L370.341,1490.25Z" style="fill:url(#_Linear3);"/>
    </g>
    <g transform="matrix(0.961148,0.276035,-0.276035,0.961148,33.3684,-254.467)">
        <path d="M284.03,183.182L192.86,209.366L192.86,792.057L284.03,792.057L284.03,183.182Z" style="fill:url(#_Linear4);"/>
    </g>
    <defs>
        <linearGradient id="_Linear1" x1="0" y1="0" x2="1" y2="0" gradientUnits="userSpaceOnUse" gradientTransform="matrix(4.73028e-14,772.513,-772.513,4.73028e-14,113.32,743.997)"><stop offset="0" style="stop-color:rgb(181,107,226);stop-opacity:1"/><stop offset="1" style="stop-color:rgb(109,166,219);stop-opacity:1"/></linearGradient>
        <linearGradient id="_Linear2" x1="0" y1="0" x2="1" y2="0" gradientUnits="userSpaceOnUse" gradientTransform="matrix(4.73028e-14,772.513,-772.513,4.73028e-14,166.684,756.227)"><stop offset="0" style="stop-color:rgb(181,107,226);stop-opacity:1"/><stop offset="1" style="stop-color:rgb(109,166,219);stop-opacity:1"/></linearGradient>
        <linearGradient id="_Linear3" x1="0" y1="0" x2="1" y2="0" gradientUnits="userSpaceOnUse" gradientTransform="matrix(-7.617,501.87,-501.87,-7.617,415.926,1360.88)"><stop offset="0" style="stop-color:rgb(118,199,244);stop-opacity:1"/><stop offset="1" style="stop-color:rgb(196,113,245);stop-opacity:1"/></linearGradient>
        <linearGradient id="_Linear4" x1="0" y1="0" x2="1" y2="0" gradientUnits="userSpaceOnUse" gradientTransform="matrix(-7.617,501.874,-501.874,-7.617,238.445,97)"><stop offset="0" style="stop-color:rgb(118,199,244);stop-opacity:1"/><stop offset="1" style="stop-color:rgb(196,113,245);stop-opacity:1"/></linearGradient>
    </defs>
</svg>
