<svg width="57" height="57" viewBox="0 0 57 57" fill="none" xmlns="http://www.w3.org/2000/svg">
<path d="M38.7969 22.2656C38.7969 24.4489 40.5667 26.2188 42.75 26.2188C44.9333 26.2188 46.7031 24.4489 46.7031 22.2656C46.7031 20.0824 44.9333 18.3125 42.75 18.3125C40.5667 18.3125 38.7969 20.0824 38.7969 22.2656Z" stroke="black"/>
<path d="M44.9219 29.3906V29H40.5781V29.3906V29.4262L40.5731 29.4615L40.3182 31.2426L40.3181 31.2427L38.7919 41.9301L38.7718 42.0705L38.681 42.1795L34.3438 47.3841V52.0469H51.1562V47.3841L46.819 42.1795L46.7282 42.0705L46.7081 41.9301L45.1819 31.2427L45.1818 31.2426L44.9269 29.4615L44.9219 29.4262V29.3906Z" stroke="black"/>
<path d="M45.4219 26.3281H40.0781C39.3705 26.3281 38.7969 26.9018 38.7969 27.6094C38.7969 28.317 39.3705 28.8906 40.0781 28.8906H45.4219C46.1295 28.8906 46.7031 28.317 46.7031 27.6094C46.7031 26.9018 46.1295 26.3281 45.4219 26.3281Z" stroke="black"/>
<path d="M47.5938 32.5625H37.9062V33.3438H47.5938V32.5625Z" stroke="black"/>
<path d="M51.1562 47.7031H34.3438V52.0469H51.1562V47.7031Z" stroke="black"/>
<path d="M10.2969 22.2656C10.2969 24.4489 12.0667 26.2188 14.25 26.2188C16.4333 26.2188 18.2031 24.4489 18.2031 22.2656C18.2031 20.0824 16.4333 18.3125 14.25 18.3125C12.0667 18.3125 10.2969 20.0824 10.2969 22.2656Z" stroke="black"/>
<path d="M10.2919 41.9301L10.2718 42.0705L10.181 42.1795L5.84375 47.3841V52.0469H22.6562V47.3841L18.319 42.1795L18.2282 42.0705L18.2081 41.9301L16.6819 31.2427L16.6818 31.2426L16.4269 29.4615L16.4219 29.4262V29.3906V29H12.0781V29.3906V29.4262L12.0731 29.4615L11.8182 31.2426L11.8181 31.2427L10.2919 41.9301Z" stroke="black"/>
<path d="M11.5781 28.8906H16.9219C17.6295 28.8906 18.2031 28.317 18.2031 27.6094C18.2031 26.9018 17.6295 26.3281 16.9219 26.3281H11.5781C10.8705 26.3281 10.2969 26.9018 10.2969 27.6094C10.2969 28.317 10.8705 28.8906 11.5781 28.8906Z" stroke="black"/>
<path d="M19.0938 32.5625H9.40625V33.3438H19.0938V32.5625Z" stroke="black"/>
<path d="M5.84375 52.0469H22.6562V47.7031H5.84375V52.0469Z" stroke="black"/>
<path d="M17.1004 47.2031V51.87H39.9004V47.2031L32.9535 38.2969L31.4094 26.7188L31.1723 24.9375V24.0469H25.8285V24.9375L25.5914 26.7188L24.0473 38.2969L17.1004 47.2031Z" fill="url(#paint0_linear_12_340)"/>
<path d="M26.7188 7.625H24.5469V10.1875H26.7188H27.2188V10.6875V14.89H29.7812V10.6875V10.1875H30.2812H32.4531V7.625H30.2812H29.6409L29.7962 7.00373L30.6084 3.75483C30.5239 3.6979 30.4145 3.63152 30.2803 3.5644C29.8961 3.37232 29.3042 3.17188 28.5 3.17188C27.6958 3.17188 27.1039 3.37232 26.7197 3.5644C26.5855 3.63152 26.4761 3.6979 26.3916 3.75483L27.2038 7.00373L27.3591 7.625H26.7188ZM26.1805 3.91727L26.1805 3.91727C26.1791 3.91863 26.1784 3.91925 26.1786 3.91907L26.1795 3.91818L26.1805 3.91727Z" stroke="black"/>
<path d="M31.1719 14.75H25.8281C25.1205 14.75 24.5469 15.3236 24.5469 16.0312C24.5469 16.7389 25.1205 17.3125 25.8281 17.3125H31.1719C31.8795 17.3125 32.4531 16.7389 32.4531 16.0312C32.4531 15.3236 31.8795 14.75 31.1719 14.75Z" stroke="black"/>
<path d="M24.0469 24.9375H32.9531L34.7344 17.8125H22.2656L24.0469 24.9375Z" fill="#ECAF4A"/>
<path d="M24.0469 24.9375H32.9531L34.7344 17.8125H22.2656L24.0469 24.9375Z" fill="url(#paint1_linear_12_340)"/>
<path d="M33.8438 27.6094H23.1562V29.3906H33.8438V27.6094Z" fill="black"/>
<path d="M16.9219 50.7656H40.0781C41.0619 50.7656 41.8594 51.5631 41.8594 52.5469C41.8594 53.5306 41.0619 54.3281 40.0781 54.3281H16.9219C15.9381 54.3281 15.1406 53.5306 15.1406 52.5469C15.1406 51.5631 15.9381 50.7656 16.9219 50.7656Z" fill="url(#paint2_linear_12_340)"/>
<path d="M39.4004 48.3799H17.6004V50.7999H39.4004V48.3799Z" stroke="black"/>
<defs>
<linearGradient id="paint0_linear_12_340" x1="22.2304" y1="20.52" x2="37.6204" y2="55.29" gradientUnits="userSpaceOnUse">
<stop stop-color="#4EC3DD"/>
<stop offset="1" stop-color="#2DE07F"/>
</linearGradient>
<linearGradient id="paint1_linear_12_340" x1="28.5" y1="17.8125" x2="28.5" y2="24.9375" gradientUnits="userSpaceOnUse">
<stop stop-color="#4EC3DD"/>
<stop offset="1" stop-color="#2DE07F"/>
</linearGradient>
<linearGradient id="paint2_linear_12_340" x1="44.46" y1="46.17" x2="13.11" y2="56.43" gradientUnits="userSpaceOnUse">
<stop stop-color="#4EC3DD"/>
<stop offset="1" stop-color="#2DE07F"/>
</linearGradient>
</defs>
</svg>
