<svg width="165" height="140" viewBox="0 0 165 140" fill="none" xmlns="http://www.w3.org/2000/svg">
    <rect y="25.1484" width="97.167" height="97.167" transform="rotate(-15 0 25.1484)" fill="white"/>
    <rect x="38.0005" y="39.6328" width="102.901" height="102.901" transform="rotate(-15 38.0005 39.6328)" fill="white"/>
    <path d="M124.476 65.1849L124.461 65.6963L124.973 65.6996C130.793 65.7373 135.5 70.4638 135.5 76.2926C135.5 82.1449 130.756 86.8892 124.903 86.8892H87.3799L86.0007 81.9336L86.4952 30.2539H86.8876C94.0192 33.6516 99.2402 40.4092 100.498 48.4798L100.594 49.0995L101.177 48.8673C103.125 48.0906 105.248 47.6589 107.473 47.6589C116.871 47.6589 124.489 55.2771 124.489 64.6748C124.489 64.7954 124.485 64.9118 124.481 65.0375C124.48 65.085 124.478 65.1339 124.476 65.1849Z" stroke="black"/>
    <path d="M76.4229 27.3945C62.6885 27.3945 51.5546 38.5284 51.5546 52.2628C51.5546 53.0638 51.5962 53.8547 51.6702 54.6362C43.9064 55.9791 38 62.7427 38 70.8899C38 80.0027 45.3875 87.3902 54.5004 87.3902H70.7502V83.0005H83.5H87V29.755C83.7899 28.2436 80.2062 27.3945 76.4229 27.3945Z" fill="url(#paint0_linear_196_2094)"/>
    <path d="M85.1985 65.873L85.4748 61.4207L87.0453 61.1309C93.4591 61.1554 98.67 66.3816 98.67 72.801V85.8907H93.9278V72.801C93.9278 68.9805 90.8206 65.873 87 65.873H85.1985Z" stroke="black"/>
    <path d="M74.8296 72.801V82.9999H80.5718V72.801C80.5718 69.2566 83.4553 66.373 86.9998 66.373V60.6309C80.2891 60.6309 74.8296 66.0903 74.8296 72.801Z" fill="black"/>
    <path d="M103.782 82.5605H87L87 94.501L87 106.607H103.782V82.5605Z" fill="url(#paint1_linear_196_2094)"/>
    <path d="M70.7173 106.105V83.0586H86.4998V106.105H70.7173Z" stroke="black"/>
    <defs>
        <linearGradient id="paint0_linear_196_2094" x1="90" y1="24.0005" x2="18" y2="102.5" gradientUnits="userSpaceOnUse">
            <stop stop-color="#C67AF5"/>
            <stop offset="1" stop-color="#4153FA"/>
        </linearGradient>
        <linearGradient id="paint1_linear_196_2094" x1="107" y1="76.501" x2="84" y2="112.501" gradientUnits="userSpaceOnUse">
            <stop stop-color="#4153FA"/>
            <stop offset="1" stop-color="#C67AF5"/>
        </linearGradient>
    </defs>
</svg>
