<svg width="52" height="52" viewBox="0 0 52 52" fill="none" xmlns="http://www.w3.org/2000/svg">
<path d="M18.1111 8.52512L18.2445 8.62525H18.4113H37.375C37.6734 8.62525 37.9595 8.74378 38.1705 8.95475C38.3815 9.16573 38.5 9.45188 38.5 9.75025V22.7502C38.5 23.0486 38.3815 23.3348 38.1705 23.5457C37.9595 23.7567 37.6734 23.8752 37.375 23.8752H16.25H15.75V24.3752V29.2502C15.75 29.5486 15.6315 29.8348 15.4205 30.0457C15.2095 30.2567 14.9234 30.3752 14.625 30.3752H4.875C4.57663 30.3752 4.29048 30.2567 4.0795 30.0457C3.86853 29.8348 3.75 29.5486 3.75 29.2502V9.75025C3.75 9.45188 3.86853 9.16573 4.0795 8.95475C4.29048 8.74377 4.57663 8.62525 4.875 8.62525H9.75H10.25V8.12525V4.88253C10.2568 4.67087 10.3232 4.46538 10.4416 4.28972L10.0419 4.02028L10.4416 4.28972C10.5612 4.11239 10.7288 3.9728 10.9248 3.88733L10.9249 3.88748L10.9362 3.88219C11.116 3.79838 11.3148 3.7636 11.5124 3.78138C11.7078 3.79897 11.8952 3.86737 12.056 3.97974L18.1111 8.52512Z" fill="white" stroke="black"/>
<path d="M47.125 21.125H14.625C14.194 21.125 13.7807 21.2962 13.476 21.601C13.1712 21.9057 13 22.319 13 22.75V42.25C13 42.681 13.1712 43.0943 13.476 43.399C13.7807 43.7038 14.194 43.875 14.625 43.875H33.5888L39.65 48.425C39.9313 48.636 40.2734 48.75 40.625 48.75C40.8801 48.7545 41.132 48.6929 41.3563 48.5712C41.6242 48.4362 41.8496 48.2296 42.0074 47.9743C42.1651 47.7191 42.2491 47.4251 42.25 47.125V43.875H47.125C47.556 43.875 47.9693 43.7038 48.274 43.399C48.5788 43.0943 48.75 42.681 48.75 42.25V22.75C48.75 22.319 48.5788 21.9057 48.274 21.601C47.9693 21.2962 47.556 21.125 47.125 21.125Z" fill="url(#paint0_linear_12_397)"/>
<path d="M39 32.5H22.75C22.319 32.5 21.9057 32.3288 21.601 32.024C21.2962 31.7193 21.125 31.306 21.125 30.875C21.125 30.444 21.2962 30.0307 21.601 29.726C21.9057 29.4212 22.319 29.25 22.75 29.25H39C39.431 29.25 39.8443 29.4212 40.149 29.726C40.4538 30.0307 40.625 30.444 40.625 30.875C40.625 31.306 40.4538 31.7193 40.149 32.024C39.8443 32.3288 39.431 32.5 39 32.5Z" fill="white"/>
<path d="M29.25 39H22.75C22.319 39 21.9057 38.8288 21.601 38.524C21.2962 38.2193 21.125 37.806 21.125 37.375C21.125 36.944 21.2962 36.5307 21.601 36.226C21.9057 35.9212 22.319 35.75 22.75 35.75H29.25C29.681 35.75 30.0943 35.9212 30.399 36.226C30.7038 36.5307 30.875 36.944 30.875 37.375C30.875 37.806 30.7038 38.2193 30.399 38.524C30.0943 38.8288 29.681 39 29.25 39Z" fill="white"/>
<path d="M39 39C39.8975 39 40.625 38.2725 40.625 37.375C40.625 36.4775 39.8975 35.75 39 35.75C38.1025 35.75 37.375 36.4775 37.375 37.375C37.375 38.2725 38.1025 39 39 39Z" fill="white"/>
<path d="M34.125 39C35.0225 39 35.75 38.2725 35.75 37.375C35.75 36.4775 35.0225 35.75 34.125 35.75C33.2275 35.75 32.5 36.4775 32.5 37.375C32.5 38.2725 33.2275 39 34.125 39Z" fill="white"/>
<defs>
<linearGradient id="paint0_linear_12_397" x1="31" y1="21" x2="31" y2="43" gradientUnits="userSpaceOnUse">
<stop stop-color="#76C7F4"/>
<stop offset="1" stop-color="#B56BE2"/>
</linearGradient>
</defs>
</svg>
