<svg width="46" height="46" viewBox="0 0 46 46" fill="none" xmlns="http://www.w3.org/2000/svg">
<g clip-path="url(#clip0_12_291)">
<path d="M0 16.3516C0 17.834 1.21289 19.0469 2.69531 19.0469H8.08594V10.9609H2.69531C1.21289 10.9609 0 14.8691 0 16.3516Z" fill="#7984EB"/>
<path d="M0 16.3516C0 17.834 1.21289 19.0469 2.69531 19.0469H8.08594V10.9609H2.69531C1.21289 10.9609 0 14.8691 0 16.3516Z" fill="url(#paint0_linear_12_291)"/>
<path d="M45.5 40.6094C45.5 41.8157 44.511 42.8047 43.3047 42.8047H38.5663L39.9927 37.5H45C45.2313 37.5 45.3206 37.5723 45.3785 37.6512C45.4609 37.7636 45.5283 37.9659 45.5579 38.2937C45.5867 38.6128 45.575 38.9857 45.5529 39.393C45.5484 39.4779 45.5433 39.5648 45.5381 39.6527C45.5195 39.9718 45.5 40.3048 45.5 40.6094Z" stroke="black"/>
<path d="M40.1094 11.1656V44.6523C40.1094 45.1308 39.7404 45.5 39.2617 45.5H6.73828C6.25961 45.5 5.89062 45.1308 5.89062 44.6523V1.34766C5.89062 0.868901 6.25953 0.5 6.73828 0.5H29.6186L40.1094 11.1656Z" stroke="black"/>
<path d="M40.6094 10.2797V44.6523C40.6094 45.4069 40.0166 46 39.2617 46H23V1H31.5L40.6094 10.2797Z" fill="url(#paint1_linear_12_291)"/>
<path d="M39.8571 9.01009L39.8571 9.01011L39.861 9.014C40.0201 9.1731 40.1094 9.38818 40.1094 9.61328V10.4609H31.1758C30.7076 10.4609 30.3281 10.0815 30.3281 9.61328V0.5H31.1758C31.4001 0.5 31.6144 0.588632 31.7733 0.746659L39.8571 9.01009Z" stroke="black"/>
<path d="M35.5 15.5C35.5 16.1097 35.0802 16.5 34.6364 16.5H26.3636C25.9198 16.5 25.5 16.1097 25.5 15.5C25.5 14.89 25.9197 14.5 26.3636 14.5H34.6364C35.0803 14.5 35.5 14.89 35.5 15.5Z" stroke="black"/>
<path d="M35.5 20.5C35.5 21.1097 35.0802 21.5 34.6364 21.5H26.3636C25.9198 21.5 25.5 21.1097 25.5 20.5C25.5 19.89 25.9197 19.5 26.3636 19.5H34.6364C35.0803 19.5 35.5 19.89 35.5 20.5Z" stroke="black"/>
<path d="M19.3047 32.5234H11.1289C10.3842 32.5234 9.78125 31.9205 9.78125 31.1758C9.78125 30.4311 10.3842 29.8281 11.1289 29.8281H19.3047C20.0494 29.8281 20.6523 30.4311 20.6523 31.1758C20.6523 31.9205 20.0494 32.5234 19.3047 32.5234Z" fill="#A8D3D8"/>
<path d="M19.3047 32.5234H11.1289C10.3842 32.5234 9.78125 31.9205 9.78125 31.1758C9.78125 30.4311 10.3842 29.8281 11.1289 29.8281H19.3047C20.0494 29.8281 20.6523 30.4311 20.6523 31.1758C20.6523 31.9205 20.0494 32.5234 19.3047 32.5234Z" fill="url(#paint2_linear_12_291)"/>
<path d="M19.3047 37.9141H11.1289C10.3842 37.9141 9.78125 37.3111 9.78125 36.5664C9.78125 35.8217 10.3842 35.2188 11.1289 35.2188H19.3047C20.0494 35.2188 20.6523 35.8217 20.6523 36.5664C20.6523 37.3111 20.0494 37.9141 19.3047 37.9141Z" fill="#A8D3D8"/>
<path d="M19.3047 37.9141H11.1289C10.3842 37.9141 9.78125 37.3111 9.78125 36.5664C9.78125 35.8217 10.3842 35.2188 11.1289 35.2188H19.3047C20.0494 35.2188 20.6523 35.8217 20.6523 36.5664C20.6523 37.3111 20.0494 37.9141 19.3047 37.9141Z" fill="url(#paint3_linear_12_291)"/>
<path d="M34.7188 32.5234V33.0234H35.2188H41.957C43.9136 33.0234 45.5 34.6097 45.5 36.5663V38.2394C44.9877 37.7779 44.3027 37.5006 43.5027 37.4999C43.5018 37.4999 43.5009 37.4999 43.5 37.4999L35.2239 37.414L34.7188 37.4088V37.914V39.2617C34.7188 39.5747 34.5465 39.8619 34.2711 40.0089L34.2704 40.0093C34.003 40.1527 33.6722 40.1422 33.4111 39.9736L28.0329 35.94L28.0219 35.9317L28.0104 35.924C27.7743 35.7666 27.6328 35.5015 27.6328 35.2187C27.6328 34.9354 27.7744 34.6705 28.0101 34.5135L28.0218 34.5058L28.033 34.4974L33.411 30.4635C33.6698 30.2968 34.0005 30.2831 34.2705 30.4278L34.2709 30.4279C34.5466 30.5754 34.7188 30.8626 34.7188 31.1754V32.5234Z" stroke="black"/>
<path d="M4.04297 8.26556H10.7812V6.91756C10.7812 6.42026 11.055 5.96367 11.4933 5.72923C11.9303 5.49515 12.4634 5.52147 12.8764 5.79626L18.3569 9.83958C18.7321 10.0895 18.957 10.5106 18.957 10.9609C18.957 11.4108 18.7321 11.8319 18.3569 12.0822L12.8764 16.1251C12.4588 16.4034 11.9254 16.4238 11.4933 16.1922C11.055 15.9581 10.7812 15.5011 10.7812 15.0038V13.6562H2.69531C1.21289 13.6562 0 14.8691 0 16.3515V12.3085C0 10.0758 1.81021 8.26556 4.04297 8.26556Z" fill="#979FEF"/>
<path d="M4.04297 8.26556H10.7812V6.91756C10.7812 6.42026 11.055 5.96367 11.4933 5.72923C11.9303 5.49515 12.4634 5.52147 12.8764 5.79626L18.3569 9.83958C18.7321 10.0895 18.957 10.5106 18.957 10.9609C18.957 11.4108 18.7321 11.8319 18.3569 12.0822L12.8764 16.1251C12.4588 16.4034 11.9254 16.4238 11.4933 16.1922C11.055 15.9581 10.7812 15.5011 10.7812 15.0038V13.6562H2.69531C1.21289 13.6562 0 14.8691 0 16.3515V12.3085C0 10.0758 1.81021 8.26556 4.04297 8.26556Z" fill="url(#paint4_linear_12_291)"/>
</g>
<defs>
<linearGradient id="paint0_linear_12_291" x1="14" y1="26.5" x2="22.2748" y2="16.5145" gradientUnits="userSpaceOnUse">
<stop stop-color="#2DE07F"/>
<stop offset="1" stop-color="#4EC3DD"/>
</linearGradient>
<linearGradient id="paint1_linear_12_291" x1="9.5" y1="-1.5" x2="49.5" y2="58.5" gradientUnits="userSpaceOnUse">
<stop stop-color="#2DE07F"/>
<stop offset="1" stop-color="#4EC3DD"/>
</linearGradient>
<linearGradient id="paint2_linear_12_291" x1="6.5" y1="25.5" x2="4.715" y2="29.3981" gradientUnits="userSpaceOnUse">
<stop stop-color="#2DE07F"/>
<stop offset="1" stop-color="#4EC3DD"/>
</linearGradient>
<linearGradient id="paint3_linear_12_291" x1="4" y1="34" x2="3.8103" y2="38.0859" gradientUnits="userSpaceOnUse">
<stop stop-color="#2DE07F"/>
<stop offset="1" stop-color="#4EC3DD"/>
</linearGradient>
<linearGradient id="paint4_linear_12_291" x1="1" y1="4.99994" x2="-0.225593" y2="14.0249" gradientUnits="userSpaceOnUse">
<stop stop-color="#2DE07F"/>
<stop offset="1" stop-color="#4EC3DD"/>
</linearGradient>
<clipPath id="clip0_12_291">
<rect width="46" height="46" fill="white"/>
</clipPath>
</defs>
</svg>
