<svg width="52" height="52" viewBox="0 0 52 52" fill="none" xmlns="http://www.w3.org/2000/svg">
<path d="M15.5049 11.3691H35.6447V43.17H15.5049V11.3691Z" fill="white"/>
<path d="M15.505 10.8691H15.005V11.3691V43.3813H12.7554V8.61914H36.6719V43.3813H34.4219V11.3691V10.8691H33.9219H15.505Z" fill="white" stroke="black"/>
<path d="M45.9901 43.1699H6.01025C5.8217 43.1699 5.64087 43.2448 5.50755 43.3782C5.37422 43.5115 5.29932 43.6923 5.29932 43.8809C5.29932 44.0694 5.37422 44.2502 5.50755 44.3836C5.64087 44.5169 5.8217 44.5918 6.01025 44.5918H45.9901C46.1787 44.5918 46.3595 44.5169 46.4928 44.3836C46.6262 44.2502 46.7011 44.0694 46.7011 43.8809C46.7011 43.6923 46.6262 43.5115 46.4928 43.3782C46.3595 43.2448 46.1787 43.1699 45.9901 43.1699Z" fill="black"/>
<path d="M21.0571 45.9901L39.7446 43.8813V8.1191L21.0571 6.01025V45.9901Z" fill="url(#paint0_linear_12_415)"/>
<path d="M24.8321 27.4048C25.6079 27.4048 26.2369 26.7759 26.2369 26C26.2369 25.2242 25.6079 24.5952 24.8321 24.5952C24.0562 24.5952 23.4272 25.2242 23.4272 26C23.4272 26.7759 24.0562 27.4048 24.8321 27.4048Z" fill="white"/>
<defs>
<linearGradient id="paint0_linear_12_415" x1="30.4009" y1="6.01025" x2="30.4009" y2="45.9901" gradientUnits="userSpaceOnUse">
<stop stop-color="#76C7F4"/>
<stop offset="1" stop-color="#B56BE2"/>
</linearGradient>
</defs>
</svg>
