<svg width="48" height="48" viewBox="0 0 48 48" fill="none" xmlns="http://www.w3.org/2000/svg">
<g clip-path="url(#clip0_12_406)">
<path d="M17.9477 45.9948L17.9477 45.9947L17.9364 45.9884L11.8408 42.5947V36.4583L17.59 24.61L17.59 24.61L17.5919 24.6062C18.0538 23.6336 18.8561 22.864 19.8471 22.4429L20.6523 22.1008L20.6821 22.0881L20.7101 22.0718L25.6215 19.2122L25.7693 19.1261L25.8364 18.9688L27.1407 15.9086C27.3959 15.3099 27.9839 14.9214 28.6347 14.9214H28.6411C29.6922 14.9214 30.6393 15.556 31.039 16.5282C31.1985 16.9161 31.2806 17.3315 31.2806 17.7509V21.1271C31.2806 22.0888 31.0737 23.0392 30.6742 23.9139L29.9326 25.5374L29.9326 25.5375C29.593 26.2811 30.1365 27.127 30.9542 27.127H37.2023C38.5907 27.127 39.7163 28.2526 39.7163 29.6411C39.7163 30.6251 39.1507 31.4776 38.3244 31.8908L37.5595 32.2732L38.2547 32.7711C38.8384 33.1892 39.217 33.8706 39.217 34.6406C39.217 35.6175 38.607 36.4528 37.7451 36.7854L36.9674 37.0854L37.5832 37.6473C38.0051 38.0322 38.2686 38.5846 38.2686 39.1993C38.2686 40.2029 37.5638 41.0429 36.6216 41.2499L36.6215 41.25C36.2974 41.3212 36.0773 41.6087 36.0773 41.9285V41.9335C36.0773 42.1999 36.2277 42.4273 36.4405 42.5446C37.0799 42.8971 37.5144 43.5706 37.5281 44.3459C37.5489 45.5155 36.5702 46.4841 35.3722 46.4841H31.4794H19.7392C19.1091 46.4841 18.4904 46.3151 17.9477 45.9948ZM36.938 41.6413C36.9388 41.6418 36.9396 41.6422 36.9404 41.6427L36.9384 41.6415L36.938 41.6413Z" fill="white" stroke="black" stroke-width="1.03119"/>
<path d="M4.07795 48.0001H13.8629C15.0601 48.0001 16.0306 47.0296 16.0306 45.8325V25.9289C16.0306 24.7316 15.06 23.7612 13.8629 23.7612H4.07795C3.35183 23.7612 2.76318 24.3499 2.76318 25.076V46.6852C2.76318 47.4114 3.35183 48.0001 4.07795 48.0001V48.0001Z" fill="url(#paint0_linear_12_406)"/>
<path d="M30.9761 10.4822L28.7123 9.30567C28.4943 9.19237 28.2347 9.19363 28.0177 9.30896L25.7652 10.5068C25.219 10.7972 24.5769 10.3353 24.6786 9.72505L25.0981 7.20852C25.1385 6.96626 25.057 6.71954 24.8804 6.54891L23.0451 4.77678C22.6001 4.34706 22.841 3.59368 23.4528 3.50184L25.9757 3.12307C26.2186 3.08662 26.428 2.93291 26.5357 2.71211L27.654 0.419188C27.9251 -0.136785 28.7161 -0.140556 28.9925 0.412904L30.1323 2.69529C30.242 2.91503 30.4529 3.06671 30.6962 3.10093L33.2226 3.45592C33.8352 3.54196 34.0832 4.29312 33.6422 4.72699L31.8238 6.51633C31.6487 6.68861 31.5696 6.936 31.6123 7.17797L32.0553 9.69044C32.1627 10.2996 31.525 10.7675 30.9761 10.4822V10.4822Z" fill="url(#paint1_linear_12_406)"/>
<path d="M17.8387 14.4026L16.0317 13.4635C15.8577 13.3731 15.6503 13.374 15.4773 13.4661L13.6791 14.4222C13.2431 14.654 12.7306 14.2853 12.8118 13.7982L13.1466 11.7894C13.1787 11.596 13.1138 11.3992 12.9727 11.263L11.5077 9.84832C11.1526 9.50532 11.3448 8.90391 11.8331 8.83053L13.8471 8.52823C14.041 8.49914 14.2081 8.37645 14.2941 8.20022L15.1868 6.36979C15.4032 5.92596 16.0346 5.92296 16.2553 6.36476L17.1652 8.18668C17.2528 8.36215 17.4211 8.48318 17.6153 8.51045L19.632 8.7938C20.121 8.86253 20.319 9.46211 19.967 9.80849L18.5154 11.2369C18.3756 11.3744 18.3124 11.5719 18.3465 11.765L18.7002 13.7706C18.7859 14.2568 18.2769 14.6303 17.8387 14.4026V14.4026Z" fill="url(#paint2_linear_12_406)"/>
<path d="M38.7234 14.4026L40.5304 13.4635C40.7044 13.3731 40.9118 13.374 41.0848 13.4661L42.883 14.4222C43.319 14.654 43.8315 14.2853 43.7503 13.7982L43.4155 11.7894C43.3833 11.596 43.4483 11.3992 43.5894 11.263L45.0544 9.84832C45.4095 9.50532 45.2173 8.90391 44.729 8.83053L42.715 8.52823C42.5211 8.49914 42.354 8.37645 42.268 8.20022L41.3753 6.36979C41.1589 5.92596 40.5275 5.92296 40.3068 6.36476L39.3969 8.18668C39.3093 8.36215 39.141 8.48318 38.9468 8.51045L36.9301 8.7938C36.4411 8.86253 36.2431 9.46211 36.5951 9.80849L38.0467 11.2369C38.1865 11.3744 38.2497 11.5719 38.2156 11.765L37.8619 13.7706C37.7762 14.2568 38.2852 14.6303 38.7234 14.4026V14.4026Z" fill="url(#paint3_linear_12_406)"/>
</g>
<defs>
<linearGradient id="paint0_linear_12_406" x1="9.39687" y1="23.7612" x2="9.39687" y2="48.0001" gradientUnits="userSpaceOnUse">
<stop stop-color="#76C7F4"/>
<stop offset="1" stop-color="#B56BE2"/>
</linearGradient>
<linearGradient id="paint1_linear_12_406" x1="28.3412" y1="0" x2="28.3412" y2="10.5958" gradientUnits="userSpaceOnUse">
<stop stop-color="#76C7F4"/>
<stop offset="1" stop-color="#B56BE2"/>
</linearGradient>
<linearGradient id="paint2_linear_12_406" x1="15.7354" y1="6.03516" x2="15.7354" y2="14.4932" gradientUnits="userSpaceOnUse">
<stop stop-color="#76C7F4"/>
<stop offset="1" stop-color="#B56BE2"/>
</linearGradient>
<linearGradient id="paint3_linear_12_406" x1="40.8267" y1="6.03516" x2="40.8267" y2="14.4932" gradientUnits="userSpaceOnUse">
<stop stop-color="#76C7F4"/>
<stop offset="1" stop-color="#B56BE2"/>
</linearGradient>
<clipPath id="clip0_12_406">
<rect width="48" height="48" fill="white"/>
</clipPath>
</defs>
</svg>
