<svg width="148" height="142" viewBox="0 0 148 142" fill="none" xmlns="http://www.w3.org/2000/svg">
    <rect x="56.999" width="93.622" height="93.622" transform="rotate(15 56.999 0)" fill="#242424"/>
    <rect y="51.5371" width="93.622" height="93.622" transform="rotate(-15 0 51.5371)" fill="#242424"/>
    <path d="M78.0001 49.3164V98.6301H68.0001H55.0001H37.6099V49.3164H78.0001Z" fill="white"/>
    <path d="M78.5 50.2422H117.93V97.7578H78.5V50.2422Z" stroke="white"/>
    <path d="M43.2197 54.9277H78.0002V93.0741H43.2197V54.9277Z" fill="url(#paint0_linear_196_2074)"/>
    <path d="M78.5 55.6328H112.539V92.3672H78.5V55.6328Z" stroke="white"/>
    <path d="M78 98H86V104H78V98Z" stroke="white"/>
    <path d="M78.5 104.109H96.3672V108.5H78.5V104.109Z" stroke="white"/>
    <path d="M98.3262 49.876L98.4279 50.2422H98.808H104.453V60.0234H98.808H98.4279L98.3262 60.3896C97.7978 62.2921 97.0597 64.0832 96.0597 65.766L95.8612 66.1002L96.136 66.375L100.149 70.388L93.2559 77.2818L89.2429 73.2688L88.9681 72.994L88.634 73.1925C86.9505 74.1925 85.1593 74.9306 83.2568 75.459L82.8906 75.5607V75.9408V81.5859H73.1094V75.9408V75.5607L72.7432 75.459C70.8407 74.9306 69.0495 74.1925 67.366 73.1925L67.0319 72.994L66.7571 73.2688L62.7441 77.2818L55.851 70.388L59.864 66.375L60.1388 66.1002L59.9403 65.766C58.9403 64.0832 58.2022 62.2921 57.6738 60.3896L57.5721 60.0234H57.192H51.5469V50.2422H57.192H57.5721L57.6738 49.876C58.2022 47.9735 58.9403 46.1824 59.9403 44.4988L60.1388 44.1647L59.864 43.8899L55.851 39.8769L62.7441 32.9838L66.7571 36.9968L67.0319 37.2716L67.366 37.0731C69.0495 36.0731 70.8407 35.3351 72.7432 34.8066L73.1094 34.7049V34.3249V28.5H82.8906V34.3249V34.7049L83.2568 34.8066C85.1593 35.3351 86.9505 36.0731 88.634 37.0731L88.9681 37.2716L89.2429 36.9968L93.2559 32.9838L100.149 39.8769L96.136 43.8899L95.8612 44.1647L96.0597 44.4988C97.0597 46.1824 97.7978 47.9735 98.3262 49.876ZM66.7188 55.1328C66.7188 61.3386 71.7942 66.4141 78 66.4141C84.2058 66.4141 89.2812 61.3386 89.2812 55.1328C89.2812 48.927 84.2058 43.8516 78 43.8516C71.7942 43.8516 66.7188 48.927 66.7188 55.1328Z" stroke="white"/>
    <path d="M98.808 60.5234C98.2689 62.4642 97.5143 64.2969 96.4896 66.0215L100.856 70.388L93.2559 77.9889L88.8893 73.6224C87.1641 74.6472 85.3314 75.4017 83.3906 75.9408V82.0859H78V65.9141C83.9297 65.9141 88.7812 61.0625 88.7812 55.1328C88.7812 49.2031 83.9297 44.3516 78 44.3516V28H83.3906V34.3249C85.3314 34.8639 87.1641 35.6185 88.8893 36.6432L93.2559 32.2767L100.856 39.8769L96.4896 44.2435C97.5143 45.9688 98.2689 47.8014 98.808 49.7422H104.953V60.5234H98.808Z" fill="url(#paint1_linear_196_2074)"/>
    <path d="M70 98H78V107H70V98Z" fill="white"/>
    <path d="M58.9268 103.391H77.9999V109H58.9268V103.391Z" fill="white"/>
    <defs>
        <linearGradient id="paint0_linear_196_2074" x1="81.927" y1="51.5619" x2="42.6588" y2="94.196" gradientUnits="userSpaceOnUse">
            <stop stop-color="#F28943"/>
            <stop offset="1" stop-color="#C67AF5"/>
        </linearGradient>
        <linearGradient id="paint1_linear_196_2074" x1="121.195" y1="28" x2="63.9756" y2="88.0244" gradientUnits="userSpaceOnUse">
            <stop stop-color="#FF9100"/>
            <stop offset="1" stop-color="#C67AF5"/>
        </linearGradient>
    </defs>
</svg>
