<svg width="48" height="48" viewBox="0 0 48 48" fill="none" xmlns="http://www.w3.org/2000/svg">
<g clip-path="url(#clip0_12_458)">
<path d="M36.414 24.8275C35.9572 24.8275 35.5864 24.4568 35.5864 23.9999C35.5864 22.1743 37.0711 20.6896 38.8968 20.6896H43.8623C44.3183 20.6896 44.6899 20.318 44.6899 19.862V15.7241C44.6899 15.2672 45.0606 14.8965 45.5175 14.8965C45.9743 14.8965 46.3451 15.2672 46.3451 15.7241V19.862C46.3451 21.2308 45.2311 22.3448 43.8623 22.3448H38.8968C37.9839 22.3448 37.2416 23.0871 37.2416 23.9999C37.2416 24.4568 36.8708 24.8275 36.414 24.8275Z" fill="black"/>
<path d="M13.2415 15.7241H9.10355C4.99624 15.7241 1.65527 12.3823 1.65527 8.27583C1.65527 7.819 2.02603 7.44824 2.48286 7.44824C2.93969 7.44824 3.31045 7.819 3.31045 8.27583C3.31045 11.4703 5.90907 14.0689 9.10355 14.0689H13.2415C13.6983 14.0689 14.0691 14.4397 14.0691 14.8965C14.0691 15.3533 13.6983 15.7241 13.2415 15.7241Z" fill="black"/>
<path d="M19.0347 43.8624H12.414C11.9572 43.8624 11.5864 43.4916 11.5864 43.0348C11.5864 42.578 11.9572 42.2072 12.414 42.2072H19.0347C21.3163 42.2072 23.1726 40.3509 23.1726 38.0693C23.1726 37.6125 23.5434 37.2417 24.0002 37.2417C24.457 37.2417 24.8278 37.6125 24.8278 38.0693C24.8278 41.2638 22.2292 43.8624 19.0347 43.8624Z" fill="black"/>
<path d="M13.2416 33.931H4.96577C4.50894 33.931 4.13818 33.5603 4.13818 33.1035C4.13818 32.6466 4.50894 32.2759 4.96577 32.2759H13.2416C13.6985 32.2759 14.0692 32.6466 14.0692 33.1035C14.0692 33.5603 13.6985 33.931 13.2416 33.931Z" fill="black"/>
<path d="M24 5.7932C23.5432 5.7932 23.1724 5.42245 23.1724 4.96562C23.1724 4.05279 22.4301 3.31045 21.5173 3.31045H17.3793C16.9225 3.31045 16.5518 2.93969 16.5518 2.48286C16.5518 2.02603 16.9225 1.65527 17.3793 1.65527H21.5173C23.3429 1.65527 24.8276 3.13996 24.8276 4.96562C24.8276 5.42245 24.4568 5.7932 24 5.7932Z" fill="black"/>
<path d="M23.9999 10.7589C23.5431 10.7589 23.1724 10.3881 23.1724 9.93129V4.96577C23.1724 4.50894 23.5431 4.13818 23.9999 4.13818C24.4568 4.13818 24.8275 4.50894 24.8275 4.96577V9.93129C24.8275 10.3881 24.4568 10.7589 23.9999 10.7589Z" fill="black"/>
<path d="M30.6206 12.414C30.1637 12.414 29.793 12.0433 29.793 11.5865C29.793 9.7608 31.2777 8.27611 33.1033 8.27611H35.5861C36.0421 8.27611 36.4136 7.90453 36.4136 7.44853V4.96577C36.4136 4.50894 36.7844 4.13818 37.2412 4.13818C37.6981 4.13818 38.0688 4.50894 38.0688 4.96577V7.44853C38.0688 8.81736 36.9549 9.93129 35.5861 9.93129H33.1033C32.1905 9.93129 31.4481 10.6736 31.4481 11.5865C31.4481 12.0433 31.0774 12.414 30.6206 12.414Z" fill="black"/>
<path d="M45.5173 34.7588C45.0605 34.7588 44.6897 34.388 44.6897 33.9312V31.4484C44.6897 30.9924 44.3181 30.6208 43.8621 30.6208H35.9794C34.2588 30.6208 33.1035 29.2909 33.1035 27.3105C33.1035 26.8537 33.4743 26.4829 33.9311 26.4829C34.3879 26.4829 34.7587 26.8537 34.7587 27.3105C34.7587 27.8087 34.8779 28.9657 35.9794 28.9657H43.8621C45.231 28.9657 46.3449 30.0796 46.3449 31.4484V33.9312C46.3449 34.388 45.9741 34.7588 45.5173 34.7588Z" fill="black"/>
<path d="M34.7585 41.3795C34.3017 41.3795 33.9309 41.0088 33.9309 40.552C33.9309 40.096 33.5593 39.7244 33.1033 39.7244C31.2777 39.7244 29.793 38.2397 29.793 36.414C29.793 35.9572 30.1637 35.5864 30.6206 35.5864C31.0774 35.5864 31.4481 35.9572 31.4481 36.414C31.4481 37.3268 32.1905 38.0692 33.1033 38.0692C34.4721 38.0692 35.5861 39.1831 35.5861 40.552C35.5861 41.0088 35.2153 41.3795 34.7585 41.3795Z" fill="black"/>
<path d="M2.48276 8.27606C3.85395 8.27606 4.96552 7.16449 4.96552 5.79331C4.96552 4.42212 3.85395 3.31055 2.48276 3.31055C1.11157 3.31055 0 4.42212 0 5.79331C0 7.16449 1.11157 8.27606 2.48276 8.27606Z" fill="url(#paint0_linear_12_458)"/>
<path d="M14.8963 4.96552C16.2675 4.96552 17.3791 3.85395 17.3791 2.48276C17.3791 1.11157 16.2675 0 14.8963 0C13.5251 0 12.4136 1.11157 12.4136 2.48276C12.4136 3.85395 13.5251 4.96552 14.8963 4.96552Z" fill="url(#paint1_linear_12_458)"/>
<path d="M45.5174 15.7243C46.8886 15.7243 48.0002 14.6127 48.0002 13.2415C48.0002 11.8704 46.8886 10.7588 45.5174 10.7588C44.1462 10.7588 43.0347 11.8704 43.0347 13.2415C43.0347 14.6127 44.1462 15.7243 45.5174 15.7243Z" fill="url(#paint2_linear_12_458)"/>
<path d="M45.5174 38.8967C46.8886 38.8967 48.0002 37.7851 48.0002 36.4139C48.0002 35.0427 46.8886 33.9312 45.5174 33.9312C44.1462 33.9312 43.0347 35.0427 43.0347 36.4139C43.0347 37.7851 44.1462 38.8967 45.5174 38.8967Z" fill="url(#paint3_linear_12_458)"/>
<path d="M9.931 45.5173C11.3022 45.5173 12.4138 44.4057 12.4138 43.0345C12.4138 41.6633 11.3022 40.5518 9.931 40.5518C8.55981 40.5518 7.44824 41.6633 7.44824 43.0345C7.44824 44.4057 8.55981 45.5173 9.931 45.5173Z" fill="url(#paint4_linear_12_458)"/>
<path d="M2.48276 35.5861C3.85395 35.5861 4.96552 34.4746 4.96552 33.1034C4.96552 31.7322 3.85395 30.6206 2.48276 30.6206C1.11157 30.6206 0 31.7322 0 33.1034C0 34.4746 1.11157 35.5861 2.48276 35.5861Z" fill="url(#paint5_linear_12_458)"/>
<path d="M37.2415 4.96552C38.6127 4.96552 39.7243 3.85395 39.7243 2.48276C39.7243 1.11157 38.6127 0 37.2415 0C35.8704 0 34.7588 1.11157 34.7588 2.48276C34.7588 3.85395 35.8704 4.96552 37.2415 4.96552Z" fill="url(#paint6_linear_12_458)"/>
<path d="M34.7587 43.862C34.3019 43.862 33.9312 43.4913 33.9312 43.0345V40.5517C33.9312 40.0949 34.3019 39.7241 34.7587 39.7241C35.2156 39.7241 35.5863 40.0949 35.5863 40.5517V43.0345C35.5863 43.4913 35.2156 43.862 34.7587 43.862Z" fill="black"/>
<path d="M37.5691 24.0001C37.5691 31.4941 31.4941 37.5691 24.0001 37.5691C16.5062 37.5691 10.4312 31.4941 10.4312 24.0001C10.4312 16.5062 16.5062 10.4312 24.0001 10.4312C31.4941 10.4312 37.5691 16.5062 37.5691 24.0001Z" fill="white" stroke="black"/>
<mask id="mask0_12_458" style="mask-type:alpha" maskUnits="userSpaceOnUse" x="24" y="2" width="24" height="52">
<rect x="24" y="2" width="24" height="52" fill="#C4C4C4"/>
</mask>
<g mask="url(#mask0_12_458)">
<path d="M24.0001 38.0691C31.7702 38.0691 38.0691 31.7702 38.0691 24.0001C38.0691 16.23 31.7702 9.93115 24.0001 9.93115C16.23 9.93115 9.93115 16.23 9.93115 24.0001C9.93115 31.7702 16.23 38.0691 24.0001 38.0691Z" fill="url(#paint7_linear_12_458)"/>
</g>
<path d="M17.3794 22.3447H30.6208V32.2758H17.3794V22.3447Z" fill="white"/>
<mask id="mask1_12_458" style="mask-type:alpha" maskUnits="userSpaceOnUse" x="9" y="7" width="15" height="41">
<rect x="9" y="7" width="15" height="41" fill="#C4C4C4"/>
</mask>
<g mask="url(#mask1_12_458)">
<path d="M17.3794 22.3447H30.6208V32.2758H17.3794V22.3447Z" fill="url(#paint8_linear_12_458)"/>
</g>
<path d="M21.5171 25.6553H26.4826V28.9656H21.5171V25.6553Z" fill="white"/>
<mask id="mask2_12_458" style="mask-type:alpha" maskUnits="userSpaceOnUse" x="24" y="19" width="9" height="17">
<rect x="24" y="19" width="9" height="17" fill="#C4C4C4"/>
</mask>
<g mask="url(#mask2_12_458)">
<path d="M21.5171 25.6553H26.4826V28.9656H21.5171V25.6553Z" fill="url(#paint9_linear_12_458)"/>
</g>
<path d="M24.0002 14.0688C21.2576 14.0688 19.0347 16.2917 19.0347 19.0344V22.3447H22.345V19.0344C22.345 18.1199 23.0865 17.3792 24.0002 17.3792C24.9138 17.3792 25.6554 18.1199 25.6554 19.0344V22.3447H28.9657V19.0344C28.9657 16.2917 26.7428 14.0688 24.0002 14.0688Z" fill="white"/>
<mask id="mask3_12_458" style="mask-type:alpha" maskUnits="userSpaceOnUse" x="7" y="3" width="17" height="56">
<rect x="7" y="3" width="17" height="56" fill="#C4C4C4"/>
</mask>
<g mask="url(#mask3_12_458)">
<path d="M24.0002 14.0688C21.2576 14.0688 19.0347 16.2917 19.0347 19.0344V22.3447H22.345V19.0344C22.345 18.1199 23.0865 17.3792 24.0002 17.3792C24.9138 17.3792 25.6554 18.1199 25.6554 19.0344V22.3447H28.9657V19.0344C28.9657 16.2917 26.7428 14.0688 24.0002 14.0688Z" fill="url(#paint10_linear_12_458)"/>
</g>
<path d="M34.7586 48.0002C36.1298 48.0002 37.2414 46.8886 37.2414 45.5174C37.2414 44.1462 36.1298 43.0347 34.7586 43.0347C33.3874 43.0347 32.2759 44.1462 32.2759 45.5174C32.2759 46.8886 33.3874 48.0002 34.7586 48.0002Z" fill="url(#paint11_linear_12_458)"/>
</g>
<defs>
<linearGradient id="paint0_linear_12_458" x1="2.48276" y1="3.31055" x2="2.48276" y2="8.27606" gradientUnits="userSpaceOnUse">
<stop stop-color="#76C7F4"/>
<stop offset="1" stop-color="#B56BE2"/>
</linearGradient>
<linearGradient id="paint1_linear_12_458" x1="14.8963" y1="0" x2="14.8963" y2="4.96552" gradientUnits="userSpaceOnUse">
<stop stop-color="#76C7F4"/>
<stop offset="1" stop-color="#B56BE2"/>
</linearGradient>
<linearGradient id="paint2_linear_12_458" x1="45.5174" y1="10.7588" x2="45.5174" y2="15.7243" gradientUnits="userSpaceOnUse">
<stop stop-color="#76C7F4"/>
<stop offset="1" stop-color="#B56BE2"/>
</linearGradient>
<linearGradient id="paint3_linear_12_458" x1="45.5174" y1="33.9312" x2="45.5174" y2="38.8967" gradientUnits="userSpaceOnUse">
<stop stop-color="#76C7F4"/>
<stop offset="1" stop-color="#B56BE2"/>
</linearGradient>
<linearGradient id="paint4_linear_12_458" x1="9.931" y1="40.5518" x2="9.931" y2="45.5173" gradientUnits="userSpaceOnUse">
<stop stop-color="#76C7F4"/>
<stop offset="1" stop-color="#B56BE2"/>
</linearGradient>
<linearGradient id="paint5_linear_12_458" x1="2.48276" y1="30.6206" x2="2.48276" y2="35.5861" gradientUnits="userSpaceOnUse">
<stop stop-color="#76C7F4"/>
<stop offset="1" stop-color="#B56BE2"/>
</linearGradient>
<linearGradient id="paint6_linear_12_458" x1="37.2415" y1="0" x2="37.2415" y2="4.96552" gradientUnits="userSpaceOnUse">
<stop stop-color="#76C7F4"/>
<stop offset="1" stop-color="#B56BE2"/>
</linearGradient>
<linearGradient id="paint7_linear_12_458" x1="24.0001" y1="9.93115" x2="24.0001" y2="38.0691" gradientUnits="userSpaceOnUse">
<stop stop-color="#76C7F4"/>
<stop offset="1" stop-color="#B56BE2"/>
</linearGradient>
<linearGradient id="paint8_linear_12_458" x1="24.0001" y1="22.3447" x2="24.0001" y2="32.2758" gradientUnits="userSpaceOnUse">
<stop stop-color="#76C7F4"/>
<stop offset="1" stop-color="#B56BE2"/>
</linearGradient>
<linearGradient id="paint9_linear_12_458" x1="23.9998" y1="25.6553" x2="23.9998" y2="28.9656" gradientUnits="userSpaceOnUse">
<stop stop-color="#76C7F4"/>
<stop offset="1" stop-color="#B56BE2"/>
</linearGradient>
<linearGradient id="paint10_linear_12_458" x1="24.0002" y1="14.0688" x2="24.0002" y2="22.3447" gradientUnits="userSpaceOnUse">
<stop stop-color="#76C7F4"/>
<stop offset="1" stop-color="#B56BE2"/>
</linearGradient>
<linearGradient id="paint11_linear_12_458" x1="34.7586" y1="43.0347" x2="34.7586" y2="48.0002" gradientUnits="userSpaceOnUse">
<stop stop-color="#76C7F4"/>
<stop offset="1" stop-color="#B56BE2"/>
</linearGradient>
<clipPath id="clip0_12_458">
<rect width="48" height="48" fill="white"/>
</clipPath>
</defs>
</svg>
