<svg id="Layer_1" data-name="Layer 1" xmlns="http://www.w3.org/2000/svg" viewBox="0 0 40.14 33.11"><defs><style>.cls-1{fill:#ff4646;}</style></defs><path class="cls-1" d="M-3.63,14a4.35,4.35,0,0,1,1.26-3.42A4.57,4.57,0,0,1,1,9.16a4.69,4.69,0,0,1,4.65,4.65,4.4,4.4,0,0,1-1.38,3.3A4.61,4.61,0,0,1,1,18.46a4.33,4.33,0,0,1-3.19-1.29A4.77,4.77,0,0,1-3.63,14Z" transform="translate(19.1 14.65)"/><path class="cls-1" d="M21-6.34a28.39,28.39,0,0,0-40.14,0l4.51,4.51a22,22,0,0,1,31.11,0l0,0Z" transform="translate(19.1 14.65)"/><path class="cls-1" d="M-6,6.78a9.82,9.82,0,0,1,13.89,0l0,0,4.5-4.5a16.19,16.19,0,0,0-22.91,0h0Z" transform="translate(19.1 14.65)"/></svg>