<?xml version="1.0" encoding="UTF-8" standalone="no"?>
<!DOCTYPE svg PUBLIC "-//W3C//DTD SVG 1.1//EN" "http://www.w3.org/Graphics/SVG/1.1/DTD/svg11.dtd">
<svg width="100%" height="100%" viewBox="0 0 1440 544" version="1.1" xmlns="http://www.w3.org/2000/svg" xmlns:xlink="http://www.w3.org/1999/xlink" xml:space="preserve" xmlns:serif="http://www.serif.com/" style="fill-rule:evenodd;clip-rule:evenodd;stroke-linejoin:round;stroke-miterlimit:2;">
    <g transform="matrix(0.707107,-0.707107,0.707107,0.707107,147.097,287.01)">
        <path d="M556.588,904.673L541.235,904.673L431.998,795.436L431.998,26.104L556.588,150.694L556.588,904.673Z" style="fill:url(#_Linear1);"/>
    </g>
    <g transform="matrix(0.714474,0.699662,-0.699662,0.714474,28.4326,-235.939)">
        <path d="M397.74,446.798L273.148,319.568L273.148,62.743L397.74,-59.266L397.74,446.798Z" style="fill:url(#_Linear2);"/>
    </g>
    <g transform="matrix(-0.707107,-0.707107,0.707107,-0.707107,636.83,2251.45)">
        <path d="M779.377,1915.23L779.377,1635.32L885.977,1528.72L885.977,2021.83L779.377,1915.23Z" style="fill:url(#_Linear3);"/>
    </g>
    <defs>
        <linearGradient id="_Linear1" x1="0" y1="0" x2="1" y2="0" gradientUnits="userSpaceOnUse" gradientTransform="matrix(5.5632e-14,908.539,-908.539,5.5632e-14,494.293,-3.86621)"><stop offset="0" style="stop-color:rgb(214,107,165);stop-opacity:1"/><stop offset="0.49" style="stop-color:rgb(152,148,224);stop-opacity:1"/><stop offset="1" style="stop-color:rgb(70,174,197);stop-opacity:1"/></linearGradient>
        <linearGradient id="_Linear2" x1="0" y1="0" x2="1" y2="0" gradientUnits="userSpaceOnUse" gradientTransform="matrix(5.39111e-14,880.435,-880.435,5.39111e-14,335.444,-96.3213)"><stop offset="0" style="stop-color:rgb(214,107,165);stop-opacity:1"/><stop offset="0.49" style="stop-color:rgb(152,148,224);stop-opacity:1"/><stop offset="1" style="stop-color:rgb(70,174,197);stop-opacity:1"/></linearGradient>
        <linearGradient id="_Linear3" x1="0" y1="0" x2="1" y2="0" gradientUnits="userSpaceOnUse" gradientTransform="matrix(7.792e-14,1272.53,-1272.53,7.792e-14,832.677,1006.19)"><stop offset="0" style="stop-color:rgb(214,107,165);stop-opacity:1"/><stop offset="0.49" style="stop-color:rgb(152,148,224);stop-opacity:1"/><stop offset="1" style="stop-color:rgb(70,174,197);stop-opacity:1"/></linearGradient>
    </defs>
</svg>
