<?xml version="1.0" encoding="UTF-8" standalone="no"?>
<!DOCTYPE svg PUBLIC "-//W3C//DTD SVG 1.1//EN" "http://www.w3.org/Graphics/SVG/1.1/DTD/svg11.dtd">
<svg width="100%" height="100%" viewBox="0 0 2560 251" version="1.1" xmlns="http://www.w3.org/2000/svg" xmlns:xlink="http://www.w3.org/1999/xlink" xml:space="preserve" xmlns:serif="http://www.serif.com/" style="fill-rule:evenodd;clip-rule:evenodd;stroke-linejoin:round;stroke-miterlimit:2;">
    <g transform="matrix(1.64408,0,0,1.64408,172.746,-27.5009)">
        <path d="M739.368,16.727L1385.59,118.422L1391.39,158.459L353.956,81.614L357.013,16.727L739.368,16.727Z" style="fill:url(#_Linear1);"/>
    </g>
    <g transform="matrix(1.64408,0,0,1.64408,172.746,-27.5009)">
        <path d="M1452.03,168.854L547.956,45.527L551.69,16.727L1452.03,16.727L1452.03,168.854Z" style="fill:url(#_Linear2);"/>
    </g>
    <g transform="matrix(1.64408,0,0,1.64408,172.746,-27.5009)">
        <path d="M825.84,18.001L-105.071,146.34L-105.071,16.727L825.84,16.727L825.84,18.001Z" style="fill:url(#_Linear3);"/>
    </g>
    <defs>
        <linearGradient id="_Linear1" x1="0" y1="0" x2="1" y2="0" gradientUnits="userSpaceOnUse" gradientTransform="matrix(-1735.93,-391.484,391.484,-1735.93,2115.93,234.66)"><stop offset="0" style="stop-color:rgb(196,113,245);stop-opacity:1"/><stop offset="0.6" style="stop-color:rgb(196,113,245);stop-opacity:1"/><stop offset="1" style="stop-color:rgb(250,113,205);stop-opacity:1"/><stop offset="1" style="stop-color:rgb(196,196,196);stop-opacity:0"/></linearGradient>
        <linearGradient id="_Linear2" x1="0" y1="0" x2="1" y2="0" gradientUnits="userSpaceOnUse" gradientTransform="matrix(-865.35,-108.056,108.056,-865.35,1468.35,116.056)"><stop offset="0" style="stop-color:rgb(196,113,245);stop-opacity:1"/><stop offset="1" style="stop-color:rgb(250,113,205);stop-opacity:1"/><stop offset="1" style="stop-color:rgb(196,196,196);stop-opacity:0"/></linearGradient>
        <linearGradient id="_Linear3" x1="0" y1="0" x2="1" y2="0" gradientUnits="userSpaceOnUse" gradientTransform="matrix(-996.685,41.4564,-41.4564,-996.685,866.135,18.0136)"><stop offset="0" style="stop-color:rgb(196,113,245);stop-opacity:1"/><stop offset="1" style="stop-color:rgb(250,113,205);stop-opacity:1"/><stop offset="1" style="stop-color:rgb(196,196,196);stop-opacity:0"/></linearGradient>
    </defs>
</svg>
