<svg width="48" height="48" viewBox="0 0 48 48" fill="none" xmlns="http://www.w3.org/2000/svg">
<g clip-path="url(#clip0_12_447)">
<path d="M6.27451 31.8881L6.27451 31.8881C7.53826 35.318 9.4493 38.2926 11.9538 40.7373C14.8073 43.5208 18.5583 45.745 23.117 47.3351C23.2479 47.3799 23.3815 47.4169 23.5159 47.4439C23.7096 47.4818 23.9033 47.501 24.0945 47.501H24.1324C24.312 47.4983 24.4937 47.4792 24.6724 47.4439C24.8083 47.4166 24.9437 47.3795 25.0731 47.3344C29.6267 45.7417 33.3733 43.5163 36.2241 40.7326C38.7275 38.288 40.639 35.3115 41.9046 31.8814C44.2176 25.6085 44.0927 18.6871 43.9855 13.0344C43.9855 13.0334 43.9855 13.0325 43.9855 13.0315L43.9846 13.0044C43.9628 12.5376 43.9488 12.0461 43.9411 11.5009C43.9058 9.11681 42.0079 7.14103 39.6219 7.008L39.6475 6.54795L39.6219 7.00799C33.9953 6.694 29.6096 4.85175 25.8679 1.20675L25.8424 1.18275C25.3509 0.733629 24.7407 0.50727 24.1294 0.499322L24.1284 0.49931C23.4941 0.489827 22.8551 0.716887 22.3452 1.18432C22.3452 1.18433 22.3452 1.18434 22.3452 1.18434C22.3451 1.18448 22.3449 1.18462 22.3448 1.18476L22.3187 1.20873C18.5781 4.85244 14.193 6.69406 8.56747 7.00799L8.56744 7.008C6.18153 7.14102 4.28366 9.11666 4.24823 11.5006L6.27451 31.8881ZM6.27451 31.8881C3.96949 25.6328 4.09556 18.7241 4.20314 13.0814M6.27451 31.8881L4.20314 13.0814M4.20314 13.0814L4.20482 13.0023C4.22655 12.5333 4.24051 12.0417 4.24822 11.5009L4.20314 13.0814Z" fill="white" stroke="black" stroke-width="0.998048"/>
<mask id="mask0_12_447" style="mask-type:alpha" maskUnits="userSpaceOnUse" x="-2" y="-2" width="26" height="58">
<rect x="-2" y="-2" width="26" height="58" fill="#C4C4C4"/>
</mask>
<g mask="url(#mask0_12_447)">
<path d="M42.3728 32.0541C41.0827 35.5507 39.1315 38.591 36.5728 41.0896C33.6603 43.9336 29.8466 46.1935 25.2374 47.8056C25.0862 47.8583 24.9283 47.9015 24.7698 47.9334C24.5603 47.9747 24.3472 47.9971 24.1359 48H24.0945C23.8693 48 23.6429 47.9773 23.4185 47.9334C23.2599 47.9015 23.1043 47.8583 22.9537 47.8067C18.3391 46.1972 14.5206 43.9384 11.6052 41.0944C9.0454 38.5957 7.09459 35.5573 5.80626 32.0607C3.46361 25.7032 3.59691 18.6998 3.70421 13.0719L3.70604 12.9855C3.72765 12.5207 3.74156 12.0326 3.74925 11.4935C3.78844 8.84691 5.89269 6.65733 8.53966 6.50975C14.0585 6.20176 18.3278 4.40183 21.9756 0.846289L22.0074 0.816992C22.6132 0.261449 23.3763 -0.011012 24.1359 0.000340585C24.8683 0.0098621 25.5978 0.281957 26.1819 0.816992L26.213 0.846289C29.8616 4.40183 34.1309 6.20176 39.6497 6.50975C42.2966 6.65733 44.4009 8.84691 44.4401 11.4935C44.4478 12.0362 44.4617 12.5237 44.4833 12.9855L44.4844 13.0221C44.5913 18.6606 44.7239 25.678 42.3728 32.0541Z" fill="url(#paint0_linear_12_447)"/>
</g>
<path d="M36.0566 24.0003C36.0566 30.5822 30.7124 35.9398 24.136 35.9633H24.0939C17.4981 35.9633 12.1309 30.5965 12.1309 24.0003C12.1309 17.4044 17.4981 12.0376 24.0939 12.0376H24.136C30.7124 12.061 36.0566 17.4187 36.0566 24.0003Z" fill="white"/>
<path d="M36.0563 24.0003C36.0563 30.5822 30.7122 35.9398 24.1357 35.9633V12.0376C30.7122 12.061 36.0563 17.4187 36.0563 24.0003Z" fill="url(#paint1_linear_12_447)"/>
<path d="M29.5235 22.2773L24.1358 27.6657L22.9716 28.8299C22.6966 29.105 22.3359 29.2423 21.9755 29.2423C21.6148 29.2423 21.2545 29.105 20.9791 28.8299L18.476 26.3258C17.926 25.7757 17.926 24.8847 18.476 24.3343C19.0253 23.7843 19.9174 23.7843 20.4675 24.3343L21.9755 25.8424L27.532 20.2859C28.0821 19.7354 28.9742 19.7354 29.5235 20.2859C30.0735 20.8359 30.0735 21.728 29.5235 22.2773Z" fill="url(#paint2_linear_12_447)"/>
<path d="M29.5234 22.2773L24.1357 27.6658V23.6817L27.532 20.2859C28.082 19.7354 28.9741 19.7354 29.5234 20.2859C30.0735 20.8359 30.0735 21.728 29.5234 22.2773Z" fill="white"/>
</g>
<defs>
<linearGradient id="paint0_linear_12_447" x1="24.0941" y1="0" x2="24.0941" y2="48" gradientUnits="userSpaceOnUse">
<stop stop-color="#76C7F4"/>
<stop offset="1" stop-color="#B56BE2"/>
</linearGradient>
<linearGradient id="paint1_linear_12_447" x1="30.096" y1="12.0376" x2="30.096" y2="35.9633" gradientUnits="userSpaceOnUse">
<stop stop-color="#76C7F4"/>
<stop offset="1" stop-color="#B56BE2"/>
</linearGradient>
<linearGradient id="paint2_linear_12_447" x1="23.9998" y1="19.873" x2="23.9998" y2="29.2423" gradientUnits="userSpaceOnUse">
<stop stop-color="#76C7F4"/>
<stop offset="1" stop-color="#B56BE2"/>
</linearGradient>
<clipPath id="clip0_12_447">
<rect width="48" height="48" fill="white"/>
</clipPath>
</defs>
</svg>
