<svg width="48" height="48" viewBox="0 0 48 48" fill="none" xmlns="http://www.w3.org/2000/svg">
<path d="M24.0003 16.2548L18.985 18.0383L19.1315 12.7176L15.8857 8.49881L20.9911 6.99404L24.0003 2.60352L27.0091 6.99404L32.1148 8.49881L28.8691 12.7176L29.0152 18.0383L24.0003 16.2548Z" fill="url(#paint0_linear_12_524)"/>
<path d="M40.1278 8.12005L39.9606 8.06061L39.7934 8.12005L38.1847 8.69207L38.2314 6.98524L38.2362 6.80791L38.1281 6.6673L37.087 5.31402L38.7248 4.83108L38.8949 4.7809L38.9952 4.63458L39.9605 3.22642L40.9255 4.63453L41.0259 4.78089L41.196 4.83108L42.8338 5.31402L41.7927 6.6673L41.6845 6.80794L41.6894 6.98531L41.7364 8.69204L40.1278 8.12005Z" fill="white" stroke="black" stroke-width="0.998052"/>
<path d="M8.20688 8.12005L8.03969 8.06061L7.87251 8.12005L6.26388 8.69204L6.31086 6.98531L6.31574 6.80791L6.20751 6.66725L5.16618 5.31399L6.80387 4.83108L6.97403 4.7809L7.07433 4.63458L8.03969 3.22634L9.00505 4.63458L9.10535 4.7809L9.27551 4.83108L10.9133 5.31402L9.8722 6.6673L9.76404 6.80791L9.76889 6.98524L9.81562 8.69208L8.20688 8.12005Z" fill="white" stroke="black" stroke-width="0.998052"/>
<path d="M24 40.1723C23.9392 40.1723 23.8773 40.1657 23.8173 40.1536C23.7572 40.1423 23.6982 40.1236 23.6419 40.1002C23.5847 40.0767 23.5302 40.0474 23.4796 40.0137C23.428 39.98 23.3804 39.9409 23.3372 39.8976C23.2939 39.8544 23.2548 39.8068 23.2211 39.7552C23.187 39.7046 23.1581 39.6501 23.1346 39.593C23.1112 39.5366 23.0925 39.4776 23.0812 39.4175C23.0691 39.3575 23.0625 39.2956 23.0625 39.2348C23.0625 39.174 23.0691 39.1121 23.0812 39.0521C23.0925 38.992 23.1112 38.933 23.1346 38.8759C23.1581 38.8195 23.187 38.765 23.2211 38.7144C23.2548 38.6628 23.2939 38.6152 23.3372 38.572C23.3804 38.5287 23.428 38.4896 23.4796 38.4559C23.5302 38.4218 23.5847 38.3929 23.6419 38.3694C23.6982 38.346 23.7572 38.3281 23.8173 38.316C23.9381 38.2918 24.0619 38.2918 24.1827 38.316C24.2428 38.3281 24.3018 38.346 24.3582 38.3694C24.4153 38.3929 24.4695 38.4218 24.52 38.4559C24.5717 38.4896 24.6196 38.5287 24.6629 38.572C24.7061 38.6152 24.7453 38.6628 24.7789 38.7144C24.8126 38.765 24.8419 38.8195 24.8654 38.8759C24.8888 38.933 24.9075 38.992 24.9185 39.0521C24.9309 39.1121 24.9375 39.174 24.9375 39.2348C24.9375 39.2956 24.9309 39.3578 24.9185 39.4175C24.9064 39.4776 24.8888 39.5366 24.8654 39.593C24.8419 39.6501 24.8126 39.7046 24.7789 39.7552C24.7453 39.8068 24.7061 39.8544 24.6629 39.8976C24.6196 39.9409 24.5717 39.98 24.52 40.0137C24.4695 40.0474 24.4153 40.0767 24.3582 40.1002C24.3018 40.1236 24.2428 40.1423 24.1827 40.1536C24.1227 40.1657 24.0608 40.1723 24 40.1723Z" fill="black"/>
<path d="M24 37.0786C23.4822 37.0786 23.0625 36.6589 23.0625 36.1411V20.6719C23.0625 20.1544 23.4822 19.7344 24 19.7344C24.5178 19.7344 24.9375 20.1544 24.9375 20.6719V36.1411C24.9375 36.6585 24.5178 37.0786 24 37.0786Z" fill="black"/>
<path d="M38.0858 26.3212L34.2402 24.4934L37.3325 21.5663L37.883 17.3442L41.622 19.3807L45.8078 18.5992L45.0263 22.7851L47.0628 26.5241L42.8404 27.0745L39.9136 30.1668L38.0858 26.3212Z" fill="url(#paint1_linear_12_524)"/>
<path d="M25.6547 46.722C25.6221 46.722 25.5899 46.7205 25.5569 46.7172C25.042 46.6637 24.6677 46.203 24.7208 45.6881C25.3353 39.7438 28.1973 35.228 30.4901 32.4865C32.9661 29.5253 35.3077 27.9517 35.4058 27.8862C35.8368 27.5994 36.4188 27.7159 36.7059 28.1473C36.9926 28.5779 36.8758 29.1602 36.4448 29.447C36.3558 29.5063 34.2325 30.9338 31.9283 33.6892C29.8035 36.2303 27.1514 40.4081 26.586 45.8811C26.5362 46.3631 26.1289 46.722 25.6547 46.722Z" fill="black"/>
<path d="M9.91447 26.3212L13.7601 24.4934L10.6678 21.5663L10.1174 17.3442L6.37832 19.3807L2.19251 18.5992L2.97401 22.7851L0.9375 26.5241L5.15957 27.0745L8.08634 30.1668L9.91447 26.3212Z" fill="url(#paint2_linear_12_524)"/>
<path d="M22.3458 46.7221C21.8711 46.7221 21.4643 46.3633 21.4145 45.881C20.8487 40.4079 18.1969 36.2305 16.0722 33.6894C13.7691 30.9354 11.6446 29.5065 11.5553 29.4471C11.1243 29.16 11.0074 28.5778 11.2946 28.1471C11.5817 27.7161 12.1636 27.5992 12.5946 27.8863C12.6931 27.9519 15.0358 29.5273 17.5103 32.4867C19.8031 35.2282 22.6651 39.744 23.2796 45.6883C23.3327 46.2032 22.9584 46.6639 22.4432 46.717C22.4106 46.7207 22.378 46.7221 22.3458 46.7221Z" fill="black"/>
<path d="M31.3649 46.5474C31.2342 46.5474 31.1012 46.5199 30.9745 46.4621C30.5039 46.246 30.2974 45.6897 30.5134 45.2188C31.9446 42.0983 34.3301 40.1727 36.0791 39.1067C37.9325 37.9769 39.4384 37.5576 39.6039 37.5133C40.1045 37.38 40.618 37.6774 40.7513 38.1776C40.8846 38.6778 40.5872 39.1916 40.087 39.3249C40.0734 39.3286 38.7107 39.6985 37.0547 40.7078C35.5291 41.6376 33.4512 43.3108 32.2174 46.0006C32.06 46.3445 31.7201 46.5474 31.3649 46.5474Z" fill="black"/>
<path d="M17.5239 46.5474C17.1686 46.5474 16.8288 46.3445 16.671 46.0006C15.4376 43.3108 13.3597 41.6376 11.8337 40.7078C10.178 39.6985 8.81496 39.3286 8.80141 39.3249C8.30116 39.1913 8.0038 38.6778 8.13747 38.1776C8.27077 37.6774 8.78456 37.38 9.28481 37.5133C9.45071 37.5576 10.9569 37.9776 12.8096 39.1067C14.5586 40.1727 16.9442 42.0983 18.3753 45.2188C18.5914 45.6897 18.3848 46.246 17.9139 46.4621C17.7872 46.5199 17.6546 46.5474 17.5239 46.5474Z" fill="black"/>
<path d="M43.6729 34.6398C43.1554 34.6398 42.7354 34.2201 42.7354 33.7023V32.9219C42.7354 32.4041 43.1554 31.9844 43.6729 31.9844C44.1907 31.9844 44.6104 32.4041 44.6104 32.9219V33.7023C44.6104 34.2201 44.1907 34.6398 43.6729 34.6398Z" fill="black"/>
<path d="M43.6729 38.8726C43.1554 38.8726 42.7354 38.4525 42.7354 37.9351V37.1543C42.7354 36.6368 43.1554 36.2168 43.6729 36.2168C44.1907 36.2168 44.6104 36.6368 44.6104 37.1543V37.9351C44.6104 38.4525 44.1907 38.8726 43.6729 38.8726Z" fill="black"/>
<path d="M46.1798 36.3657H45.3994C44.882 36.3657 44.4619 35.9457 44.4619 35.4282C44.4619 34.9104 44.882 34.4907 45.3994 34.4907H46.1798C46.6976 34.4907 47.1173 34.9104 47.1173 35.4282C47.1173 35.9457 46.6976 36.3657 46.1798 36.3657Z" fill="black"/>
<path d="M41.9469 36.3657H41.1665C40.6487 36.3657 40.229 35.9457 40.229 35.4282C40.229 34.9104 40.6487 34.4907 41.1665 34.4907H41.9469C42.4647 34.4907 42.8844 34.9104 42.8844 35.4282C42.8844 35.9457 42.4647 36.3657 41.9469 36.3657Z" fill="black"/>
<path d="M4.32666 34.6398C3.80884 34.6398 3.38916 34.2201 3.38916 33.7023V32.9219C3.38916 32.4041 3.80884 31.9844 4.32666 31.9844C4.84449 31.9844 5.26417 32.4041 5.26417 32.9219V33.7023C5.26417 34.2201 4.84449 34.6398 4.32666 34.6398Z" fill="black"/>
<path d="M4.32666 38.8726C3.80884 38.8726 3.38916 38.4525 3.38916 37.9351V37.1543C3.38916 36.6368 3.80884 36.2168 4.32666 36.2168C4.84449 36.2168 5.26417 36.6368 5.26417 37.1543V37.9351C5.26417 38.4525 4.84449 38.8726 4.32666 38.8726Z" fill="black"/>
<path d="M6.83363 36.3657H6.05323C5.5354 36.3657 5.11572 35.9457 5.11572 35.4282C5.11572 34.9104 5.5354 34.4907 6.05323 34.4907H6.83363C7.35145 34.4907 7.77113 34.9104 7.77113 35.4282C7.77113 35.9457 7.35145 36.3657 6.83363 36.3657Z" fill="black"/>
<path d="M2.60059 36.3657H1.81983C1.30237 36.3657 0.882324 35.9457 0.882324 35.4282C0.882324 34.9104 1.30237 34.4907 1.81983 34.4907H2.60059C3.11842 34.4907 3.5381 34.9104 3.5381 35.4282C3.5381 35.9457 3.11842 36.3657 2.60059 36.3657Z" fill="black"/>
<defs>
<linearGradient id="paint0_linear_12_524" x1="24.0003" y1="2.60352" x2="24.0003" y2="18.0383" gradientUnits="userSpaceOnUse">
<stop stop-color="#76C7F4"/>
<stop offset="1" stop-color="#B56BE2"/>
</linearGradient>
<linearGradient id="paint1_linear_12_524" x1="40.6515" y1="17.3442" x2="40.6515" y2="30.1668" gradientUnits="userSpaceOnUse">
<stop stop-color="#76C7F4"/>
<stop offset="1" stop-color="#B56BE2"/>
</linearGradient>
<linearGradient id="paint2_linear_12_524" x1="7.34879" y1="17.3442" x2="7.34879" y2="30.1668" gradientUnits="userSpaceOnUse">
<stop stop-color="#76C7F4"/>
<stop offset="1" stop-color="#B56BE2"/>
</linearGradient>
</defs>
</svg>
