<svg width="59" height="66" viewBox="0 0 59 66" fill="none" xmlns="http://www.w3.org/2000/svg">
<path d="M47.7705 33.0881L47.7549 33.6L48.2671 33.6033C51.1015 33.6211 53.3699 35.8559 53.3699 38.583C53.3699 41.3211 51.0834 43.5644 48.2333 43.5644H29.2529L28.7178 41.3427V15.6896C33.1507 17.6227 34.9894 21.1159 35.5934 24.8851L35.6912 25.4957L36.2678 25.2722C37.2303 24.899 38.2793 24.6915 39.3795 24.6915C44.0305 24.6915 47.7769 28.3545 47.7769 32.844C47.7769 32.8988 47.7752 32.9499 47.7731 33.0101C47.7722 33.0344 47.7713 33.0601 47.7705 33.0881Z" stroke="black"/>
<path d="M24.24 14.2998C17.4094 14.2998 11.8721 19.8235 11.8721 26.6373C11.8721 27.0347 11.8927 27.4271 11.9296 27.8148C8.06834 28.481 5.13086 31.8365 5.13086 35.8785C5.13086 40.3995 8.80495 44.0645 13.3371 44.0645H21.4188H23.0874H29.5004V41.8867V15.4708C27.9039 14.721 26.1216 14.2998 24.24 14.2998Z" fill="url(#paint0_linear_12_360)"/>
<path d="M29 50V29.5L27.5 31.5" stroke="black" stroke-linejoin="round"/>
<path d="M32.933 38.392V55.7508H26.0664V38.392V37.892H25.5664H23.4421C23.38 37.8859 23.3202 37.8638 23.2683 37.8275C23.2129 37.7887 23.1685 37.735 23.1404 37.6716C23.1123 37.6083 23.1018 37.5382 23.1103 37.4689C23.1187 37.3997 23.1457 37.3345 23.1879 37.2804L23.188 37.2805L23.1947 37.2715L29.2716 29.0961L29.2718 29.0962L29.2787 29.0864C29.3044 29.0501 29.3379 29.0209 29.3763 29.0009C29.4147 28.981 29.457 28.9707 29.4997 28.9707C29.5424 28.9707 29.5847 28.981 29.6231 29.0009C29.6615 29.0209 29.695 29.0501 29.7207 29.0864L29.7206 29.0865L29.7277 29.0961L35.8047 37.2715L35.8046 37.2716L35.8115 37.2804C35.8537 37.3345 35.8807 37.3997 35.8891 37.4689C35.8976 37.5382 35.8871 37.6083 35.859 37.6717C35.8309 37.735 35.7865 37.7887 35.7311 37.8275C35.6792 37.8638 35.6193 37.8859 35.5573 37.892H33.433H32.933V38.392Z" stroke="black"/>
<path d="M33.4333 38.392H35.577C35.7353 38.3819 35.8878 38.3283 36.0181 38.2371C36.1485 38.1459 36.2516 38.0205 36.3164 37.8744C36.3812 37.7283 36.4052 37.5672 36.3858 37.4083C36.3664 37.2495 36.3043 37.099 36.2063 36.9732L30.1293 28.7978C30.0579 28.6967 29.9635 28.6142 29.854 28.5573C29.7445 28.5004 29.6232 28.4707 29.5 28.4707L29.5 56.2508H33.4333V38.392Z" fill="url(#paint1_linear_12_360)"/>
<path d="M39.3334 49.1333H19.6668C18.0376 49.1333 16.7168 50.4659 16.7168 52.1098V62.0314C16.7168 63.6752 18.0376 65.0079 19.6668 65.0079H39.3334C40.9627 65.0079 42.2834 63.6752 42.2834 62.0314V52.1098C42.2834 50.4659 40.9627 49.1333 39.3334 49.1333Z" fill="url(#paint2_linear_12_360)"/>
<path d="M24.583 60.0468C24.3891 60.0467 24.1995 59.9887 24.0382 59.8802L21.0882 57.8958C20.9535 57.8052 20.8431 57.6825 20.7667 57.5385C20.6903 57.3945 20.6504 57.2337 20.6504 57.0704C20.6504 56.907 20.6903 56.7462 20.7667 56.6022C20.8431 56.4582 20.9535 56.3355 21.0882 56.2449L24.0382 54.2606C24.2552 54.1145 24.5208 54.0614 24.7766 54.113C25.0323 54.1645 25.2573 54.3165 25.4021 54.5354C25.5468 54.7543 25.5994 55.0223 25.5484 55.2804C25.4973 55.5384 25.3467 55.7655 25.1297 55.9115L23.403 57.0704L25.1258 58.2292C25.3012 58.3472 25.4343 58.5189 25.5056 58.7191C25.5769 58.9193 25.5826 59.1373 25.5218 59.3409C25.4609 59.5446 25.3369 59.7231 25.1678 59.8502C24.9988 59.9773 24.7938 60.0462 24.583 60.0468Z" fill="black"/>
<path d="M34.4162 60.0468C34.205 60.0471 33.9994 59.9788 33.8297 59.852C33.6601 59.7252 33.5353 59.5467 33.474 59.3428C33.4127 59.139 33.418 58.9206 33.4893 58.72C33.5605 58.5195 33.6938 58.3474 33.8694 58.2292L35.5962 57.0704L33.8734 55.9115C33.6564 55.7655 33.5058 55.5384 33.4547 55.2804C33.4036 55.0223 33.4563 54.7543 33.601 54.5354C33.7457 54.3165 33.9707 54.1645 34.2265 54.113C34.4823 54.0614 34.7479 54.1145 34.9649 54.2606L37.9149 56.2449C38.0496 56.3355 38.16 56.4582 38.2364 56.6022C38.3127 56.7462 38.3527 56.907 38.3527 57.0704C38.3527 57.2337 38.3127 57.3945 38.2364 57.5385C38.16 57.6825 38.0496 57.8052 37.9149 57.8958L34.9649 59.8802C34.8024 59.9894 34.6114 60.0475 34.4162 60.0468Z" fill="black"/>
<path d="M28.5168 61.039C28.361 61.0389 28.2076 61.0014 28.069 60.9298C27.9304 60.8581 27.8107 60.7542 27.7196 60.6267C27.6286 60.4993 27.5689 60.3518 27.5454 60.1964C27.5219 60.0411 27.5354 59.8824 27.5846 59.7333L29.5512 53.7804C29.6336 53.5304 29.8111 53.3237 30.0446 53.2057C30.278 53.0878 30.5484 53.0682 30.7961 53.1514C31.0439 53.2345 31.2487 53.4136 31.3657 53.6491C31.4826 53.8847 31.502 54.1575 31.4196 54.4074L29.4529 60.3604C29.3875 60.5585 29.2618 60.7307 29.0937 60.8526C28.9256 60.9744 28.7237 61.0397 28.5168 61.039Z" fill="black"/>
<defs>
<linearGradient id="paint0_linear_12_360" x1="24.0173" y1="10.5268" x2="7.54355" y2="47.7124" gradientUnits="userSpaceOnUse">
<stop stop-color="#4EC3DD"/>
<stop offset="1" stop-color="#2DE07F"/>
</linearGradient>
<linearGradient id="paint1_linear_12_360" x1="24.037" y1="57.2001" x2="34.5395" y2="28.6453" gradientUnits="userSpaceOnUse">
<stop stop-color="#2DE07F"/>
<stop offset="1" stop-color="#4EC3DD"/>
</linearGradient>
<linearGradient id="paint2_linear_12_360" x1="14.7501" y1="50.4705" x2="44.947" y2="60.6589" gradientUnits="userSpaceOnUse">
<stop stop-color="#2DE07F"/>
<stop offset="1" stop-color="#4EC3DD"/>
</linearGradient>
</defs>
</svg>
